<?xml version="1.0" encoding="UTF-8"?>
<!DOCTYPE svg PUBLIC "-//W3C//DTD SVG 1.1//EN" "http://www.w3.org/Graphics/SVG/1.1/DTD/svg11.dtd">
<svg xmlns="http://www.w3.org/2000/svg" version="1.1" width="821px" height="830px" style="shape-rendering:geometricPrecision; text-rendering:geometricPrecision; image-rendering:optimizeQuality; fill-rule:evenodd; clip-rule:evenodd" xmlns:xlink="http://www.w3.org/1999/xlink">
<g><path style="opacity:1" fill="#940000" d="M 804.5,10.5 C 806.318,67.6596 807.151,124.993 807,182.5C 676.167,292.667 545.333,402.833 414.5,513C 410.403,512.775 407.07,510.941 404.5,507.5C 404.027,506.094 403.027,505.427 401.5,505.5C 399.091,504.299 397.091,502.633 395.5,500.5C 395.027,499.094 394.027,498.427 392.5,498.5C 388.854,496.183 385.52,493.516 382.5,490.5C 382.027,489.094 381.027,488.427 379.5,488.5C 375.854,486.183 372.52,483.516 369.5,480.5C 369.027,479.094 368.027,478.427 366.5,478.5C 362.854,476.183 359.52,473.516 356.5,470.5C 356.027,469.094 355.027,468.427 353.5,468.5C 351.091,467.299 349.091,465.633 347.5,463.5C 347.027,462.094 346.027,461.427 344.5,461.5C 340.854,459.183 337.52,456.516 334.5,453.5C 334.027,452.094 333.027,451.427 331.5,451.5C 327.854,449.183 324.52,446.516 321.5,443.5C 321.027,442.094 320.027,441.427 318.5,441.5C 314.854,439.183 311.52,436.516 308.5,433.5C 308.027,432.094 307.027,431.427 305.5,431.5C 301.854,429.183 298.52,426.516 295.5,423.5C 295.027,422.094 294.027,421.427 292.5,421.5C 290.091,420.299 288.091,418.633 286.5,416.5C 286.027,415.094 285.027,414.427 283.5,414.5C 279.854,412.183 276.52,409.516 273.5,406.5C 273.027,405.094 272.027,404.427 270.5,404.5C 266.854,402.183 263.52,399.516 260.5,396.5C 260.027,395.094 259.027,394.427 257.5,394.5C 253.854,392.183 250.52,389.516 247.5,386.5C 247.027,385.094 246.027,384.427 244.5,384.5C 242.091,383.299 240.091,381.633 238.5,379.5C 238.027,378.094 237.027,377.427 235.5,377.5C 231.854,375.183 228.52,372.516 225.5,369.5C 225.027,368.094 224.027,367.427 222.5,367.5C 218.854,365.183 215.52,362.516 212.5,359.5C 212.027,358.094 211.027,357.427 209.5,357.5C 205.854,355.183 202.52,352.516 199.5,349.5C 199.027,348.094 198.027,347.427 196.5,347.5C 192.854,345.183 189.52,342.516 186.5,339.5C 186.027,338.094 185.027,337.427 183.5,337.5C 181.091,336.299 179.091,334.633 177.5,332.5C 177.027,331.094 176.027,330.427 174.5,330.5C 170.854,328.183 167.52,325.516 164.5,322.5C 164.027,321.094 163.027,320.427 161.5,320.5C 157.854,318.183 154.52,315.516 151.5,312.5C 151.027,311.094 150.027,310.427 148.5,310.5C 147.883,310.389 147.383,310.056 147,309.5C 143.976,475.833 140.976,642.166 138,808.5C 137.25,809.126 136.416,809.626 135.5,810C 93.8365,810.823 52.1699,811.323 10.5,811.5C 10.6868,550.166 11.1868,288.833 12,27.5C 12.1735,23.4592 12.6735,19.4592 13.5,15.5C 141.018,122.095 268.352,228.929 395.5,336C 399.538,339.674 403.871,342.841 408.5,345.5C 411.089,344.581 413.089,342.914 414.5,340.5C 417.089,339.581 419.089,337.914 420.5,335.5C 420.833,334.5 421.5,333.833 422.5,333.5C 424.749,332.92 426.415,331.587 427.5,329.5C 430.427,328.243 432.761,326.243 434.5,323.5C 437.089,322.581 439.089,320.914 440.5,318.5C 440.833,317.5 441.5,316.833 442.5,316.5C 444.749,315.92 446.415,314.587 447.5,312.5C 450.089,311.581 452.089,309.914 453.5,307.5C 453.833,306.5 454.5,305.833 455.5,305.5C 457.749,304.92 459.415,303.587 460.5,301.5C 463.427,300.243 465.761,298.243 467.5,295.5C 470.089,294.581 472.089,292.914 473.5,290.5C 473.833,289.5 474.5,288.833 475.5,288.5C 477.749,287.92 479.415,286.587 480.5,284.5C 483.089,283.581 485.089,281.914 486.5,279.5C 486.833,278.5 487.5,277.833 488.5,277.5C 490.749,276.92 492.415,275.587 493.5,273.5C 493.833,272.5 494.5,271.833 495.5,271.5C 497.749,270.92 499.415,269.587 500.5,267.5C 503.089,266.581 505.089,264.914 506.5,262.5C 506.833,261.5 507.5,260.833 508.5,260.5C 510.749,259.92 512.415,258.587 513.5,256.5C 513.833,255.5 514.5,254.833 515.5,254.5C 517.749,253.92 519.415,252.587 520.5,250.5C 523.089,249.581 525.089,247.914 526.5,245.5C 526.833,244.5 527.5,243.833 528.5,243.5C 530.749,242.92 532.415,241.587 533.5,239.5C 536.089,238.581 538.089,236.914 539.5,234.5C 539.833,233.5 540.5,232.833 541.5,232.5C 543.749,231.92 545.415,230.587 546.5,228.5C 549.427,227.243 551.761,225.243 553.5,222.5C 556.089,221.581 558.089,219.914 559.5,217.5C 559.833,216.5 560.5,215.833 561.5,215.5C 563.749,214.92 565.415,213.587 566.5,211.5C 569.427,210.243 571.761,208.243 573.5,205.5C 576.089,204.581 578.089,202.914 579.5,200.5C 579.833,199.5 580.5,198.833 581.5,198.5C 583.749,197.92 585.415,196.587 586.5,194.5C 589.089,193.581 591.089,191.914 592.5,189.5C 592.833,188.5 593.5,187.833 594.5,187.5C 596.749,186.92 598.415,185.587 599.5,183.5C 599.833,182.5 600.5,181.833 601.5,181.5C 603.749,180.92 605.415,179.587 606.5,177.5C 609.089,176.581 611.089,174.914 612.5,172.5C 612.833,171.5 613.5,170.833 614.5,170.5C 616.749,169.92 618.415,168.587 619.5,166.5C 622.089,165.581 624.089,163.914 625.5,161.5C 625.833,160.5 626.5,159.833 627.5,159.5C 629.749,158.92 631.415,157.587 632.5,155.5C 632.833,154.5 633.5,153.833 634.5,153.5C 636.749,152.92 638.415,151.587 639.5,149.5C 642.089,148.581 644.089,146.914 645.5,144.5C 645.833,143.5 646.5,142.833 647.5,142.5C 649.749,141.92 651.415,140.587 652.5,138.5C 655.427,137.243 657.761,135.243 659.5,132.5C 662.089,131.581 664.089,129.914 665.5,127.5C 665.833,126.5 666.5,125.833 667.5,125.5C 669.749,124.92 671.415,123.587 672.5,121.5C 675.089,120.581 677.089,118.914 678.5,116.5C 678.833,115.5 679.5,114.833 680.5,114.5C 682.749,113.92 684.415,112.587 685.5,110.5C 688.427,109.243 690.761,107.243 692.5,104.5C 695.089,103.581 697.089,101.914 698.5,99.5C 698.833,98.5 699.5,97.8333 700.5,97.5C 702.749,96.9202 704.415,95.5869 705.5,93.5C 708.089,92.5806 710.089,90.914 711.5,88.5C 711.833,87.5 712.5,86.8333 713.5,86.5C 715.749,85.9202 717.415,84.5869 718.5,82.5C 718.833,81.5 719.5,80.8333 720.5,80.5C 722.749,79.9202 724.415,78.5869 725.5,76.5C 728.089,75.5806 730.089,73.914 731.5,71.5C 731.833,70.5 732.5,69.8333 733.5,69.5C 735.749,68.9202 737.415,67.5869 738.5,65.5C 741.427,64.2427 743.761,62.2427 745.5,59.5C 748.089,58.5806 750.089,56.914 751.5,54.5C 751.833,53.5 752.5,52.8333 753.5,52.5C 755.749,51.9202 757.415,50.5869 758.5,48.5C 761.089,47.5806 763.089,45.914 764.5,43.5C 764.833,42.5 765.5,41.8333 766.5,41.5C 768.749,40.9202 770.415,39.5869 771.5,37.5C 774.427,36.2427 776.761,34.2427 778.5,31.5C 781.089,30.5806 783.089,28.914 784.5,26.5C 784.833,25.5 785.5,24.8333 786.5,24.5C 788.749,23.9202 790.415,22.5869 791.5,20.5C 794.089,19.5806 796.089,17.914 797.5,15.5C 797.833,14.5 798.5,13.8333 799.5,13.5C 801.411,12.925 803.078,11.925 804.5,10.5 Z"/></g>
<g><path style="opacity:0.906" fill="#550901" d="M 804.5,10.5 C 803.078,11.925 801.411,12.925 799.5,13.5C 800.648,10.9131 802.315,9.91306 804.5,10.5 Z"/></g>
<g><path style="opacity:0.933" fill="#5e0701" d="M 797.5,15.5 C 796.089,17.914 794.089,19.5806 791.5,20.5C 792.911,18.086 794.911,16.4194 797.5,15.5 Z"/></g>
<g><path style="opacity:0.89" fill="#520a01" d="M 791.5,20.5 C 790.415,22.5869 788.749,23.9202 786.5,24.5C 787.585,22.4131 789.251,21.0798 791.5,20.5 Z"/></g>
<g><path style="opacity:0.914" fill="#5b0801" d="M 784.5,26.5 C 783.089,28.914 781.089,30.5806 778.5,31.5C 779.911,29.086 781.911,27.4194 784.5,26.5 Z"/></g>
<g><path style="opacity:0.871" fill="#580801" d="M 778.5,31.5 C 776.761,34.2427 774.427,36.2427 771.5,37.5C 773.239,34.7573 775.573,32.7573 778.5,31.5 Z"/></g>
<g><path style="opacity:0.898" fill="#540a01" d="M 771.5,37.5 C 770.415,39.5869 768.749,40.9202 766.5,41.5C 767.585,39.4131 769.251,38.0798 771.5,37.5 Z"/></g>
<g><path style="opacity:0.929" fill="#5d0801" d="M 764.5,43.5 C 763.089,45.914 761.089,47.5806 758.5,48.5C 759.911,46.086 761.911,44.4194 764.5,43.5 Z"/></g>
<g><path style="opacity:0.882" fill="#510a01" d="M 758.5,48.5 C 757.415,50.5869 755.749,51.9202 753.5,52.5C 754.585,50.4131 756.251,49.0798 758.5,48.5 Z"/></g>
<g><path style="opacity:0.914" fill="#5a0801" d="M 751.5,54.5 C 750.089,56.914 748.089,58.5806 745.5,59.5C 746.911,57.086 748.911,55.4194 751.5,54.5 Z"/></g>
<g><path style="opacity:0.863" fill="#560901" d="M 745.5,59.5 C 743.761,62.2427 741.427,64.2427 738.5,65.5C 740.239,62.7573 742.573,60.7573 745.5,59.5 Z"/></g>
<g><path style="opacity:0.898" fill="#530a01" d="M 738.5,65.5 C 737.415,67.5869 735.749,68.9202 733.5,69.5C 734.585,67.4131 736.251,66.0798 738.5,65.5 Z"/></g>
<g><path style="opacity:0.922" fill="#5c0801" d="M 731.5,71.5 C 730.089,73.914 728.089,75.5806 725.5,76.5C 726.911,74.086 728.911,72.4194 731.5,71.5 Z"/></g>
<g><path style="opacity:0.871" fill="#500a01" d="M 725.5,76.5 C 724.415,78.5869 722.749,79.9202 720.5,80.5C 721.585,78.4131 723.251,77.0798 725.5,76.5 Z"/></g>
<g><path style="opacity:0.906" fill="#550901" d="M 718.5,82.5 C 717.415,84.5869 715.749,85.9202 713.5,86.5C 714.585,84.4131 716.251,83.0798 718.5,82.5 Z"/></g>
<g><path style="opacity:0.929" fill="#5d0801" d="M 711.5,88.5 C 710.089,90.914 708.089,92.5806 705.5,93.5C 706.911,91.086 708.911,89.4194 711.5,88.5 Z"/></g>
<g><path style="opacity:0.89" fill="#520a01" d="M 705.5,93.5 C 704.415,95.5869 702.749,96.9202 700.5,97.5C 701.585,95.4131 703.251,94.0798 705.5,93.5 Z"/></g>
<g><path style="opacity:0.914" fill="#5b0801" d="M 698.5,99.5 C 697.089,101.914 695.089,103.581 692.5,104.5C 693.911,102.086 695.911,100.419 698.5,99.5 Z"/></g>
<g><path style="opacity:0.871" fill="#580801" d="M 692.5,104.5 C 690.761,107.243 688.427,109.243 685.5,110.5C 687.239,107.757 689.573,105.757 692.5,104.5 Z"/></g>
<g><path style="opacity:0.898" fill="#540a01" d="M 685.5,110.5 C 684.415,112.587 682.749,113.92 680.5,114.5C 681.585,112.413 683.251,111.08 685.5,110.5 Z"/></g>
<g><path style="opacity:0.929" fill="#5c0701" d="M 678.5,116.5 C 677.089,118.914 675.089,120.581 672.5,121.5C 673.911,119.086 675.911,117.419 678.5,116.5 Z"/></g>
<g><path style="opacity:0.882" fill="#510a01" d="M 672.5,121.5 C 671.415,123.587 669.749,124.92 667.5,125.5C 668.585,123.413 670.251,122.08 672.5,121.5 Z"/></g>
<g><path style="opacity:0.914" fill="#5a0801" d="M 665.5,127.5 C 664.089,129.914 662.089,131.581 659.5,132.5C 660.911,130.086 662.911,128.419 665.5,127.5 Z"/></g>
<g><path style="opacity:0.863" fill="#560901" d="M 659.5,132.5 C 657.761,135.243 655.427,137.243 652.5,138.5C 654.239,135.757 656.573,133.757 659.5,132.5 Z"/></g>
<g><path style="opacity:0.89" fill="#520a01" d="M 652.5,138.5 C 651.415,140.587 649.749,141.92 647.5,142.5C 648.585,140.413 650.251,139.08 652.5,138.5 Z"/></g>
<g><path style="opacity:0.922" fill="#5c0801" d="M 645.5,144.5 C 644.089,146.914 642.089,148.581 639.5,149.5C 640.911,147.086 642.911,145.419 645.5,144.5 Z"/></g>
<g><path style="opacity:0.871" fill="#500a01" d="M 639.5,149.5 C 638.415,151.587 636.749,152.92 634.5,153.5C 635.585,151.413 637.251,150.08 639.5,149.5 Z"/></g>
<g><path style="opacity:0.906" fill="#550901" d="M 632.5,155.5 C 631.415,157.587 629.749,158.92 627.5,159.5C 628.585,157.413 630.251,156.08 632.5,155.5 Z"/></g>
<g><path style="opacity:0.929" fill="#5d0801" d="M 625.5,161.5 C 624.089,163.914 622.089,165.581 619.5,166.5C 620.911,164.086 622.911,162.419 625.5,161.5 Z"/></g>
<g><path style="opacity:0.89" fill="#520a01" d="M 619.5,166.5 C 618.415,168.587 616.749,169.92 614.5,170.5C 615.585,168.413 617.251,167.08 619.5,166.5 Z"/></g>
<g><path style="opacity:0.914" fill="#5b0801" d="M 612.5,172.5 C 611.089,174.914 609.089,176.581 606.5,177.5C 607.911,175.086 609.911,173.419 612.5,172.5 Z"/></g>
<g><path style="opacity:0.871" fill="#4f0a01" d="M 606.5,177.5 C 605.415,179.587 603.749,180.92 601.5,181.5C 602.585,179.413 604.251,178.08 606.5,177.5 Z"/></g>
<g><path style="opacity:0.898" fill="#540a01" d="M 599.5,183.5 C 598.415,185.587 596.749,186.92 594.5,187.5C 595.585,185.413 597.251,184.08 599.5,183.5 Z"/></g>
<g><path style="opacity:0.925" fill="#5d0801" d="M 592.5,189.5 C 591.089,191.914 589.089,193.581 586.5,194.5C 587.911,192.086 589.911,190.419 592.5,189.5 Z"/></g>
<g><path style="opacity:0.882" fill="#510a01" d="M 586.5,194.5 C 585.415,196.587 583.749,197.92 581.5,198.5C 582.585,196.413 584.251,195.08 586.5,194.5 Z"/></g>
<g><path style="opacity:0.906" fill="#5a0801" d="M 579.5,200.5 C 578.089,202.914 576.089,204.581 573.5,205.5C 574.911,203.086 576.911,201.419 579.5,200.5 Z"/></g>
<g><path style="opacity:0.863" fill="#560901" d="M 573.5,205.5 C 571.761,208.243 569.427,210.243 566.5,211.5C 568.239,208.757 570.573,206.757 573.5,205.5 Z"/></g>
<g><path style="opacity:0.89" fill="#520a01" d="M 566.5,211.5 C 565.415,213.587 563.749,214.92 561.5,215.5C 562.585,213.413 564.251,212.08 566.5,211.5 Z"/></g>
<g><path style="opacity:0.922" fill="#5c0801" d="M 559.5,217.5 C 558.089,219.914 556.089,221.581 553.5,222.5C 554.911,220.086 556.911,218.419 559.5,217.5 Z"/></g>
<g><path style="opacity:0.871" fill="#580801" d="M 553.5,222.5 C 551.761,225.243 549.427,227.243 546.5,228.5C 548.239,225.757 550.573,223.757 553.5,222.5 Z"/></g>
<g><path style="opacity:0.906" fill="#550901" d="M 546.5,228.5 C 545.415,230.587 543.749,231.92 541.5,232.5C 542.585,230.413 544.251,229.08 546.5,228.5 Z"/></g>
<g><path style="opacity:0.929" fill="#5d0801" d="M 539.5,234.5 C 538.089,236.914 536.089,238.581 533.5,239.5C 534.911,237.086 536.911,235.419 539.5,234.5 Z"/></g>
<g><path style="opacity:0.89" fill="#520a01" d="M 533.5,239.5 C 532.415,241.587 530.749,242.92 528.5,243.5C 529.585,241.413 531.251,240.08 533.5,239.5 Z"/></g>
<g><path style="opacity:0.914" fill="#5b0801" d="M 526.5,245.5 C 525.089,247.914 523.089,249.581 520.5,250.5C 521.911,248.086 523.911,246.419 526.5,245.5 Z"/></g>
<g><path style="opacity:0.863" fill="#4e0a01" d="M 520.5,250.5 C 519.415,252.587 517.749,253.92 515.5,254.5C 516.585,252.413 518.251,251.08 520.5,250.5 Z"/></g>
<g><path style="opacity:0.991" fill="#000000" d="M 806.5,257.5 C 808.289,262.407 809.122,267.74 809,273.5C 809.5,451.5 809.667,629.5 809.5,807.5C 764.167,807.5 718.833,807.5 673.5,807.5C 673.352,719.142 673.518,630.809 674,542.5C 634.953,575.054 595.786,607.387 556.5,639.5C 523.463,611.974 490.797,583.974 458.5,555.5C 574.531,456.159 690.531,356.826 806.5,257.5 Z"/></g>
<g><path style="opacity:0.898" fill="#540a01" d="M 513.5,256.5 C 512.415,258.587 510.749,259.92 508.5,260.5C 509.585,258.413 511.251,257.08 513.5,256.5 Z"/></g>
<g><path style="opacity:0.922" fill="#5c0801" d="M 506.5,262.5 C 505.089,264.914 503.089,266.581 500.5,267.5C 501.911,265.086 503.911,263.419 506.5,262.5 Z"/></g>
<g><path style="opacity:0.882" fill="#510a01" d="M 500.5,267.5 C 499.415,269.587 497.749,270.92 495.5,271.5C 496.585,269.413 498.251,268.08 500.5,267.5 Z"/></g>
<g><path style="opacity:0.906" fill="#550901" d="M 493.5,273.5 C 492.415,275.587 490.749,276.92 488.5,277.5C 489.585,275.413 491.251,274.08 493.5,273.5 Z"/></g>
<g><path style="opacity:0.933" fill="#5f0701" d="M 486.5,279.5 C 485.089,281.914 483.089,283.581 480.5,284.5C 481.911,282.086 483.911,280.419 486.5,279.5 Z"/></g>
<g><path style="opacity:0.89" fill="#520a01" d="M 480.5,284.5 C 479.415,286.587 477.749,287.92 475.5,288.5C 476.585,286.413 478.251,285.08 480.5,284.5 Z"/></g>
<g><path style="opacity:0.922" fill="#5b0801" d="M 473.5,290.5 C 472.089,292.914 470.089,294.581 467.5,295.5C 468.911,293.086 470.911,291.419 473.5,290.5 Z"/></g>
<g><path style="opacity:0.871" fill="#580801" d="M 467.5,295.5 C 465.761,298.243 463.427,300.243 460.5,301.5C 462.239,298.757 464.573,296.757 467.5,295.5 Z"/></g>
<g><path style="opacity:0.906" fill="#550901" d="M 460.5,301.5 C 459.415,303.587 457.749,304.92 455.5,305.5C 456.585,303.413 458.251,302.08 460.5,301.5 Z"/></g>
<g><path style="opacity:0.694" fill="#3b0a00" d="M 148.5,310.5 C 150.027,310.427 151.027,311.094 151.5,312.5C 149.973,312.573 148.973,311.906 148.5,310.5 Z"/></g>
<g><path style="opacity:0.929" fill="#5d0801" d="M 453.5,307.5 C 452.089,309.914 450.089,311.581 447.5,312.5C 448.911,310.086 450.911,308.419 453.5,307.5 Z"/></g>
<g><path style="opacity:0.882" fill="#510a01" d="M 447.5,312.5 C 446.415,314.587 444.749,315.92 442.5,316.5C 443.585,314.413 445.251,313.08 447.5,312.5 Z"/></g>
<g><path style="opacity:0.706" fill="#3d0a00" d="M 161.5,320.5 C 163.027,320.427 164.027,321.094 164.5,322.5C 162.973,322.573 161.973,321.906 161.5,320.5 Z"/></g>
<g><path style="opacity:0.914" fill="#5b0801" d="M 440.5,318.5 C 439.089,320.914 437.089,322.581 434.5,323.5C 435.911,321.086 437.911,319.419 440.5,318.5 Z"/></g>
<g><path style="opacity:0.863" fill="#560901" d="M 434.5,323.5 C 432.761,326.243 430.427,328.243 427.5,329.5C 429.239,326.757 431.573,324.757 434.5,323.5 Z"/></g>
<g><path style="opacity:0.725" fill="#3e0a00" d="M 174.5,330.5 C 176.027,330.427 177.027,331.094 177.5,332.5C 175.973,332.573 174.973,331.906 174.5,330.5 Z"/></g>
<g><path style="opacity:0.898" fill="#540a01" d="M 427.5,329.5 C 426.415,331.587 424.749,332.92 422.5,333.5C 423.585,331.413 425.251,330.08 427.5,329.5 Z"/></g>
<g><path style="opacity:0.443" fill="#360700" d="M 183.5,337.5 C 185.027,337.427 186.027,338.094 186.5,339.5C 184.973,339.573 183.973,338.906 183.5,337.5 Z"/></g>
<g><path style="opacity:0.922" fill="#5c0801" d="M 420.5,335.5 C 419.089,337.914 417.089,339.581 414.5,340.5C 415.911,338.086 417.911,336.419 420.5,335.5 Z"/></g>
<g><path style="opacity:0.882" fill="#540901" d="M 414.5,340.5 C 413.089,342.914 411.089,344.581 408.5,345.5C 409.911,343.086 411.911,341.419 414.5,340.5 Z"/></g>
<g><path style="opacity:0.686" fill="#3a0900" d="M 196.5,347.5 C 198.027,347.427 199.027,348.094 199.5,349.5C 197.973,349.573 196.973,348.906 196.5,347.5 Z"/></g>
<g><path style="opacity:0.706" fill="#3c0a00" d="M 209.5,357.5 C 211.027,357.427 212.027,358.094 212.5,359.5C 210.973,359.573 209.973,358.906 209.5,357.5 Z"/></g>
<g><path style="opacity:0.722" fill="#3e0a00" d="M 222.5,367.5 C 224.027,367.427 225.027,368.094 225.5,369.5C 223.973,369.573 222.973,368.906 222.5,367.5 Z"/></g>
<g><path style="opacity:0.737" fill="#3f0a00" d="M 235.5,377.5 C 237.027,377.427 238.027,378.094 238.5,379.5C 236.973,379.573 235.973,378.906 235.5,377.5 Z"/></g>
<g><path style="opacity:0.682" fill="#3a0900" d="M 244.5,384.5 C 246.027,384.427 247.027,385.094 247.5,386.5C 245.973,386.573 244.973,385.906 244.5,384.5 Z"/></g>
<g><path style="opacity:0.698" fill="#3c0a00" d="M 257.5,394.5 C 259.027,394.427 260.027,395.094 260.5,396.5C 258.973,396.573 257.973,395.906 257.5,394.5 Z"/></g>
<g><path style="opacity:0.714" fill="#3d0a00" d="M 270.5,404.5 C 272.027,404.427 273.027,405.094 273.5,406.5C 271.973,406.573 270.973,405.906 270.5,404.5 Z"/></g>
<g><path style="opacity:0.729" fill="#3e0a00" d="M 283.5,414.5 C 285.027,414.427 286.027,415.094 286.5,416.5C 284.973,416.573 283.973,415.906 283.5,414.5 Z"/></g>
<g><path style="opacity:0.443" fill="#360700" d="M 292.5,421.5 C 294.027,421.427 295.027,422.094 295.5,423.5C 293.973,423.573 292.973,422.906 292.5,421.5 Z"/></g>
<g><path style="opacity:0.69" fill="#3b0a00" d="M 305.5,431.5 C 307.027,431.427 308.027,432.094 308.5,433.5C 306.973,433.573 305.973,432.906 305.5,431.5 Z"/></g>
<g><path style="opacity:0.706" fill="#3d0a00" d="M 318.5,441.5 C 320.027,441.427 321.027,442.094 321.5,443.5C 319.973,443.573 318.973,442.906 318.5,441.5 Z"/></g>
<g><path style="opacity:0.725" fill="#3e0a00" d="M 331.5,451.5 C 333.027,451.427 334.027,452.094 334.5,453.5C 332.973,453.573 331.973,452.906 331.5,451.5 Z"/></g>
<g><path style="opacity:0.745" fill="#400a00" d="M 344.5,461.5 C 346.027,461.427 347.027,462.094 347.5,463.5C 345.973,463.573 344.973,462.906 344.5,461.5 Z"/></g>
<g><path style="opacity:0.686" fill="#3a0900" d="M 353.5,468.5 C 355.027,468.427 356.027,469.094 356.5,470.5C 354.973,470.573 353.973,469.906 353.5,468.5 Z"/></g>
<g><path style="opacity:0.706" fill="#3c0a00" d="M 366.5,478.5 C 368.027,478.427 369.027,479.094 369.5,480.5C 367.973,480.573 366.973,479.906 366.5,478.5 Z"/></g>
<g><path style="opacity:0.718" fill="#3d0a00" d="M 379.5,488.5 C 381.027,488.427 382.027,489.094 382.5,490.5C 380.973,490.573 379.973,489.906 379.5,488.5 Z"/></g>
<g><path style="opacity:0.733" fill="#3e0a00" d="M 392.5,498.5 C 394.027,498.427 395.027,499.094 395.5,500.5C 393.973,500.573 392.973,499.906 392.5,498.5 Z"/></g>
<g><path style="opacity:0.447" fill="#370700" d="M 401.5,505.5 C 403.027,505.427 404.027,506.094 404.5,507.5C 402.973,507.573 401.973,506.906 401.5,505.5 Z"/></g>
</svg>
